<svg xmlns="http://www.w3.org/2000/svg" version="1.1" xmlns:xlink="http://www.w3.org/1999/xlink" xmlns:svgjs="http://svgjs.dev/svgjs" width="1000" height="1000" viewBox="0 0 1000 1000"><rect width="1000" height="1000" fill="#ffffff"></rect><g transform="matrix(0.7,0,0,0.7,149.57575774830678,430.53303315740965)"><svg viewBox="0 0 396 79" data-background-color="#ffffff" preserveAspectRatio="xMidYMid meet" height="199" width="1000" xmlns="http://www.w3.org/2000/svg" xmlns:xlink="http://www.w3.org/1999/xlink"><g id="tight-bounds" transform="matrix(1,0,0,1,0.24000009761357433,-0.10380200599684031)"><svg viewBox="0 0 395.52 79.2076040119937" height="79.2076040119937" width="395.52"><g><svg viewBox="0 0 547.887997212005 109.72111530666666" height="79.2076040119937" width="395.52"><g><rect width="4.562032622296178" height="109.72111530666666" x="135.86347081406436" y="0" fill="#000000" opacity="1" stroke-width="0" stroke="transparent" fill-opacity="1" class="rect-o-0" data-fill-palette-color="primary" rx="1%" id="o-0" data-palette-color="#ffccea"></rect></g><g transform="matrix(1,0,0,1,152.36799721200498,0.2729380977777751)"><svg viewBox="0 0 395.52 109.17523911111111" height="109.17523911111111" width="395.52"><g><svg viewBox="0 0 395.52 109.17523911111111" height="109.17523911111111" width="395.52"><g><svg viewBox="0 0 395.52 109.17523911111111" height="109.17523911111111" width="395.52"><g transform="matrix(1,0,0,1,0,0)"><svg width="395.52" viewBox="1.880000114440918 -37.37999725341797 296.6600036621094 78.87999725341797" height="109.17523911111111" data-palette-color="#ffccea"><svg></svg><svg></svg><g class="undefined-text-0" data-fill-palette-color="primary" id="text-0"><path xmlns="http://www.w3.org/2000/svg" d="M6.73-4.74c-1.587-1.64-2.793-3.58-3.62-5.82-0.82-2.24-1.23-4.503-1.23-6.79 0-2.287 0.227-4.307 0.68-6.06 0.46-1.76 1.093-3.363 1.9-4.81 0.8-1.453 1.767-2.747 2.9-3.88 1.133-1.14 2.373-2.103 3.72-2.89v0c2.753-1.593 5.7-2.39 8.84-2.39 3.14 0 5.867 0.46 8.18 1.38 2.313 0.92 4.26 2.187 5.84 3.8v0c3.207 3.273 4.81 7.57 4.81 12.89v0c0 5.927-1.8 10.76-5.4 14.5v0c-1.66 1.727-3.593 3.053-5.8 3.98-2.207 0.927-4.673 1.39-7.4 1.39-2.727 0-5.247-0.47-7.56-1.41-2.32-0.947-4.273-2.243-5.86-3.89zM10.3-29.93c-1.187 1.38-2.1 2.99-2.74 4.83-0.647 1.84-0.97 3.64-0.97 5.4 0 1.753 0.13 3.33 0.39 4.73 0.26 1.4 0.647 2.723 1.16 3.97 0.513 1.247 1.157 2.4 1.93 3.46 0.773 1.053 1.673 1.963 2.7 2.73v0c2.18 1.627 4.75 2.44 7.71 2.44v0c4.053 0 7.35-1.373 9.89-4.12v0c2.493-2.707 3.74-6.233 3.74-10.58v0c0-4.78-1.083-8.757-3.25-11.93v0c-2.473-3.633-6.087-5.45-10.84-5.45v0c-3.92 0-7.16 1.507-9.72 4.52zM74.32 0l-23.64-29.74v27.1l3.71 0.56v2.08h-10.3v-2.08l3.79-0.56v-31.54l-3.79-0.56v-2.08h6.74l23.66 29.74v-27.1l-3.69-0.56v-2.08h10.23v2.08l-3.69 0.56v34.18zM103.47-15.09l-0.74-2.56h-8.98v14.72h13.6l1.76-4.32h1.85l-0.8 7.25h-24.71v-2.08l3.71-0.56v-31.54l-3.71-0.56v-2.08h23.63l0.56 7.25h-2.14l-1.32-4.29h-12.43v13.28h8.98l0.74-2.59h1.73v8.08z" fill="#000000" fill-rule="nonzero" stroke="none" stroke-width="1" stroke-linecap="butt" stroke-linejoin="miter" stroke-miterlimit="10" stroke-dasharray="" stroke-dashoffset="0" font-family="none" font-weight="none" font-size="none" text-anchor="none" style="mix-blend-mode: normal" data-fill-palette-color="primary" opacity="1"></path><path xmlns="http://www.w3.org/2000/svg" d="M21.92 3.56v0c3.307 0 6.337 0.417 9.09 1.25v0c1.2 0.373 2.207 0.787 3.02 1.24v0l-0.56 6.52h-1.61c0-1.807-0.887-3.253-2.66-4.34v0c-1.887-1.16-4.483-1.74-7.79-1.74v0c-4.28 0-7.82 1.44-10.62 4.32v0c-2.78 2.9-4.17 6.523-4.17 10.87v0c0 4.607 1.283 8.513 3.85 11.72v0c1.747 2.16 3.953 3.663 6.62 4.51v0c1.367 0.44 2.92 0.66 4.66 0.66 1.747 0 3.293-0.1 4.64-0.3 1.353-0.207 2.46-0.537 3.32-0.99v0c1.693-0.893 2.54-2.407 2.54-4.54v0h1.61l0.34 6.3c-2.827 1.64-7 2.46-12.52 2.46v0c-6.087 0-10.947-1.767-14.58-5.3v0c-3.467-3.367-5.2-7.71-5.2-13.03v0c0-5.893 2.053-10.697 6.16-14.41v0c3.793-3.467 8.413-5.2 13.86-5.2zM39.31 4.12h11.96v2.08l-3.66 0.56v31.25h13.38l1.44-5.47h2l-0.22 8.4h-24.9v-2.08l3.71-0.56v-31.54l-3.71-0.56zM69.04 6.2v-2.08h11.97v2.08l-3.69 0.56v31.54l3.69 0.56v2.08h-11.97v-2.08l3.76-0.56v-31.54zM105.27 3.56v0c3.307 0 6.337 0.417 9.09 1.25v0c1.2 0.373 2.207 0.787 3.02 1.24v0l-0.56 6.52h-1.61c0-1.807-0.887-3.253-2.66-4.34v0c-1.887-1.16-4.483-1.74-7.79-1.74v0c-4.28 0-7.82 1.44-10.62 4.32v0c-2.78 2.9-4.17 6.523-4.17 10.87v0c0 4.607 1.283 8.513 3.85 11.72v0c1.747 2.16 3.953 3.663 6.62 4.51v0c1.367 0.44 2.92 0.66 4.66 0.66 1.74 0 3.287-0.1 4.64-0.3 1.353-0.207 2.46-0.537 3.32-0.99v0c1.693-0.893 2.54-2.407 2.54-4.54v0h1.61l0.34 6.3c-2.827 1.64-7 2.46-12.52 2.46v0c-6.087 0-10.947-1.767-14.58-5.3v0c-3.467-3.367-5.2-7.71-5.2-13.03v0c0-5.893 2.053-10.697 6.16-14.41v0c3.787-3.467 8.407-5.2 13.86-5.2zM131.71 22.56l16.36-15.85-2.76-0.51v-2.08h11.45v2.08l-4.37 0.51-15.52 14.92 14.89 15.92 1.9 0.92 3.18 0.39v2.08h-8.6zM123.22 6.2v-2.08h11.96v2.08l-3.66 0.56v31.54l3.66 0.56v2.08h-11.96v-2.08l3.78-0.56v-31.54zM162.6 28l0.02-3.17h12.33v3.17zM194.07 40.94h-13.11v-2.08l3.71-0.56v-31.54l-3.71-0.56v-2.08h12.03c6.933 0 11.36 1.873 13.28 5.62v0c0.72 1.38 1.08 3.043 1.08 4.99 0 1.947-0.323 3.67-0.97 5.17-0.64 1.493-1.593 2.76-2.86 3.8v0c-2.627 2.187-6.403 3.28-11.33 3.28v0h-2.93v11.32l4.81 0.56zM192.41 7.08h-3.15v17.31h3.61c3.24 0 5.713-0.863 7.42-2.59v0c1.513-1.56 2.27-3.667 2.27-6.32v0c0-2.74-0.723-4.783-2.17-6.13v0c-1.613-1.513-4.273-2.27-7.98-2.27zM210.74 6.2v-2.08h11.97v2.08l-3.69 0.56v31.54l3.69 0.56v2.08h-11.97v-2.08l3.76-0.56v-31.54zM246.97 3.56v0c3.307 0 6.333 0.417 9.08 1.25v0c1.207 0.373 2.217 0.787 3.03 1.24v0l-0.56 6.52h-1.61c0-1.807-0.887-3.253-2.66-4.34v0c-1.887-1.16-4.483-1.74-7.79-1.74v0c-4.28 0-7.82 1.44-10.62 4.32v0c-2.78 2.9-4.17 6.523-4.17 10.87v0c0 4.607 1.283 8.513 3.85 11.72v0c1.74 2.16 3.947 3.663 6.62 4.51v0c1.367 0.44 2.92 0.66 4.66 0.66 1.74 0 3.287-0.1 4.64-0.3 1.353-0.207 2.46-0.537 3.32-0.99v0c1.693-0.893 2.54-2.407 2.54-4.54v0h1.61l0.34 6.3c-2.833 1.64-7.007 2.46-12.52 2.46v0c-6.087 0-10.947-1.767-14.58-5.3v0c-3.467-3.367-5.2-7.71-5.2-13.03v0c0-5.893 2.053-10.697 6.16-14.41v0c3.787-3.467 8.407-5.2 13.86-5.2zM273.41 22.56l16.36-15.85-2.76-0.51v-2.08h11.45v2.08l-4.37 0.51-15.53 14.92 14.9 15.92 1.9 0.92 3.18 0.39v2.08h-8.6zM264.92 6.2v-2.08h11.96v2.08l-3.66 0.56v31.54l3.66 0.56v2.08h-11.96v-2.08l3.78-0.56v-31.54z" fill="#000000" fill-rule="nonzero" stroke="none" stroke-width="1" stroke-linecap="butt" stroke-linejoin="miter" stroke-miterlimit="10" stroke-dasharray="" stroke-dashoffset="0" font-family="none" font-weight="none" font-size="none" text-anchor="none" style="mix-blend-mode: normal" data-fill-palette-color="primary" opacity="1"></path></g></svg></g></svg></g></svg></g></svg></g><g transform="matrix(1,0,0,1,0,0.2729380977777751)"><svg viewBox="0 0 123.9209770384199 109.17523911111111" height="109.17523911111111" width="123.9209770384199"><g><svg xmlns="http://www.w3.org/2000/svg" xmlns:xlink="http://www.w3.org/1999/xlink" version="1.1" x="0" y="0" viewBox="6.300000190734863 11.5 87.39999389648438 77" style="enable-background:new 0 0 100 100;" xml:space="preserve" height="109.17523911111111" width="123.9209770384199" class="icon-icon-0" data-fill-palette-color="accent" id="icon-0"><path d="M72.3 12.3L72.3 12.3 72.3 12.3l-0.4-0.8H28.2L6.3 50l21.8 38.5h43.7L93.7 50 72.3 12.3zM33.3 25.3L9.9 47.7l18.6-32.8L33.3 25.3zM70.7 14.8l6.4 35.7L36.9 25.8 70.7 14.8zM35.5 27.3l41 25.2-41 23.3V27.3zM77 54.5l-7.2 30.8-32.6-8.1L77 54.5zM33.5 75L9.9 50.5l23.6-22.7V75zM33.2 77.6l-4.6 7.7L11.5 55.1 33.2 77.6zM35 78.6l31.4 7.9H30.2L35 78.6zM79.3 53.3l11.6-2.5L72.1 84 79.3 53.3zM90.7 48.9l-11.4 2.5-5.9-33.1L90.7 48.9zM35 24.3l-5-10.8h38.2L35 24.3z" fill="#000000" data-fill-palette-color="accent"></path></svg></g></svg></g></svg></g><defs></defs></svg><rect width="395.52" height="79.2076040119937" fill="none" stroke="none" visibility="hidden"></rect></g></svg></g></svg>